<svg width="804" height="145.602" xmlns="http://www.w3.org/2000/svg">
    <g>
        <title>blancsoft</title>
        <g id="svg_1">
            <path
                d="m23,142.6l-14,0l0,-141.6l14,0l0,70.6l-2.8,22.6l2.8,23.2l0,25.2zm-5.6,-32.4l0,-29.4a40.111,40.111 0 0 1 2.917,-11.261a35.075,35.075 0 0 1 3.883,-6.839q5.6,-7.7 14.3,-11.9a42.741,42.741 0 0 1 16.845,-4.15a50.178,50.178 0 0 1 2.255,-0.05a44.549,44.549 0 0 1 16.646,3.072a42.206,42.206 0 0 1 6.754,3.428q10.4,6.5 16.5,17.6a49.663,49.663 0 0 1 5.885,19.945a60.767,60.767 0 0 1 0.215,5.155a54.458,54.458 0 0 1 -2.101,15.353a47.52,47.52 0 0 1 -3.899,9.447q-6,11 -16.5,17.5a43.704,43.704 0 0 1 -23.297,6.5a51.874,51.874 0 0 1 -0.203,0a45.566,45.566 0 0 1 -11.454,-1.392a38.648,38.648 0 0 1 -7.946,-3.008q-8.6,-4.4 -14.1,-12.1q-5.5,-7.7 -6.7,-17.9zm37.8,21a37.674,37.674 0 0 0 9.674,-1.196a31.096,31.096 0 0 0 7.926,-3.304q7.6,-4.5 11.9,-12.6a36.76,36.76 0 0 0 3.96,-12.832a46.04,46.04 0 0 0 0.34,-5.668a44.307,44.307 0 0 0 -1.009,-9.659a34.762,34.762 0 0 0 -3.291,-8.941q-4.3,-8 -11.9,-12.6a31.992,31.992 0 0 0 -14.096,-4.464a39.5,39.5 0 0 0 -3.304,-0.136q-9.8,0 -17.3,4.6q-7.5,4.6 -11.7,12.6a36.268,36.268 0 0 0 -3.698,11.582a47.392,47.392 0 0 0 -0.502,7.018a43.921,43.921 0 0 0 1.185,10.401a35.993,35.993 0 0 0 3.015,8.099a31.761,31.761 0 0 0 8.255,10.251a30.777,30.777 0 0 0 3.345,2.349a30.868,30.868 0 0 0 12.45,4.219a39.116,39.116 0 0 0 4.75,0.281z"
                id="0" vector-effect="non-scaling-stroke" />
            <path d="m140,142.6l-14,0l0,-141.6l14,0l0,141.6z" id="1" vector-effect="non-scaling-stroke" />
            <path
                d="m248.6,80.8l0,29.4a41.936,41.936 0 0 1 -3.102,11.813a37.394,37.394 0 0 1 -3.398,6.187q-5.3,7.8 -13.8,12.1a40.168,40.168 0 0 1 -14.563,4.094a49.109,49.109 0 0 1 -4.537,0.206a47.24,47.24 0 0 1 -15.611,-2.523a43.008,43.008 0 0 1 -8.389,-3.977q-10.6,-6.5 -16.7,-17.5a48.977,48.977 0 0 1 -5.936,-20.347a59.512,59.512 0 0 1 -0.164,-4.453a55.081,55.081 0 0 1 2.039,-15.218a47.694,47.694 0 0 1 4.061,-9.882q6.1,-11.1 16.7,-17.6q10.6,-6.5 23.8,-6.5q10.8,0 19.3,4.3q8.5,4.3 13.8,12q5.3,7.7 6.5,17.9zm-37.2,50.4a35.258,35.258 0 0 0 10.922,-1.617a28.702,28.702 0 0 0 12.578,-8.183a33.423,33.423 0 0 0 7.942,-15.968a48.001,48.001 0 0 0 0.958,-9.832a46.519,46.519 0 0 0 -1.021,-9.957a36.581,36.581 0 0 0 -3.079,-8.743a31.552,31.552 0 0 0 -7.447,-9.698a30.058,30.058 0 0 0 -3.953,-2.902q-7.3,-4.5 -17.1,-4.5a36.948,36.948 0 0 0 -10.181,1.356a31.393,31.393 0 0 0 -7.519,3.244q-7.7,4.6 -12.2,12.7a35.85,35.85 0 0 0 -4.253,13.751a44.636,44.636 0 0 0 -0.247,4.749a40.887,40.887 0 0 0 1.233,10.23a33.766,33.766 0 0 0 3.267,8.17q4.5,8 12.3,12.6a33.309,33.309 0 0 0 14.127,4.438a40.979,40.979 0 0 0 3.673,0.162zm45.6,11.4l-14,0l0,-25.2l2.8,-23.2l-2.8,-22.6l0,-23l14,0l0,94z"
                id="2" vector-effect="non-scaling-stroke" />
            <path
                d="m368,142.6l-14.2,0l0,-55.2a34.337,34.337 0 0 0 -1.114,-8.97a25.599,25.599 0 0 0 -6.186,-11.13a24.316,24.316 0 0 0 -15.226,-7.462a33.866,33.866 0 0 0 -4.074,-0.238q-8.2,0 -14.4,3.6q-6.2,3.6 -9.8,9.8q-3.6,6.2 -3.6,14.2l-6.4,-3.6q0,-10.6 5,-19q5,-8.4 13.5,-13.2q8.5,-4.8 19.5,-4.8a38.198,38.198 0 0 1 11.681,1.737a33.707,33.707 0 0 1 7.519,3.463q8.4,5.2 13.1,14q4.7,8.8 4.7,19.2l0,57.6zm-68.6,0l-14,0l0,-94l14,0l0,94z"
                id="3" vector-effect="non-scaling-stroke" />
            <path
                d="m472.4,61.8l-9.2,9.4q-4.8,-5.4 -11.6,-8.3q-6.8,-2.9 -14.6,-2.9a37.098,37.098 0 0 0 -10.554,1.455a32.108,32.108 0 0 0 -7.246,3.145q-7.8,4.6 -12.2,12.5a34.671,34.671 0 0 0 -4.012,12.345a44.406,44.406 0 0 0 -0.388,5.955a40.556,40.556 0 0 0 1.471,11.092a35.053,35.053 0 0 0 2.929,7.208q4.4,8.1 12.2,12.7a33.309,33.309 0 0 0 14.127,4.438a40.979,40.979 0 0 0 3.673,0.162a38.672,38.672 0 0 0 10.768,-1.466a34.988,34.988 0 0 0 4.032,-1.434q6.8,-2.9 11.6,-8.3l9.4,9.4q-6.6,7.4 -15.9,11.4q-9.3,4 -19.9,4a50.347,50.347 0 0 1 -16.95,-2.799a46.377,46.377 0 0 1 -7.95,-3.701q-11.1,-6.5 -17.6,-17.7q-6.5,-11.2 -6.5,-25a50.347,50.347 0 0 1 2.799,-16.95a46.377,46.377 0 0 1 3.701,-7.95q6.5,-11.1 17.6,-17.5q11.1,-6.4 24.9,-6.4a49.447,49.447 0 0 1 18.026,3.271a47.445,47.445 0 0 1 1.774,0.729q9.2,4 15.6,11.2z"
                id="4" vector-effect="non-scaling-stroke" />
        </g>
        <g id="svg_3">
            <path
                d="m479.33333,127.93334l4.2,-4.4a42.126,42.126 0 0 0 6.883,7.131a34.522,34.522 0 0 0 6.917,4.369a38.869,38.869 0 0 0 15.855,3.686a45.114,45.114 0 0 0 1.145,0.014a43.189,43.189 0 0 0 7.294,-0.579q4.027,-0.69 7.281,-2.206a22.251,22.251 0 0 0 3.625,-2.115q6.8,-4.9 6.8,-13.5a23.999,23.999 0 0 0 -0.461,-4.846q-0.88,-4.266 -3.439,-7.154a24.248,24.248 0 0 0 -6.969,-5.383a30.236,30.236 0 0 0 -3.131,-1.417a155.188,155.188 0 0 0 -10.537,-3.635a174.384,174.384 0 0 0 -2.563,-0.765a109.492,109.492 0 0 1 -11.539,-4.035a100.288,100.288 0 0 1 -1.561,-0.665a26.957,26.957 0 0 1 -7.147,-4.491a24.489,24.489 0 0 1 -2.953,-3.109a16.8,16.8 0 0 1 -2.985,-5.983q-0.686,-2.436 -0.858,-5.333a33.558,33.558 0 0 1 -0.057,-1.984a21.756,21.756 0 0 1 1.236,-7.419a19.787,19.787 0 0 1 2.364,-4.581a22.82,22.82 0 0 1 6.725,-6.338a29.301,29.301 0 0 1 3.475,-1.862a32.181,32.181 0 0 1 7.69,-2.34q3.461,-0.618 7.385,-0.657a53.374,53.374 0 0 1 0.525,-0.003a47.841,47.841 0 0 1 12.037,1.472a41.98,41.98 0 0 1 5.963,2.028a31.63,31.63 0 0 1 7.843,4.715a27.13,27.13 0 0 1 4.957,5.385l-4.2,4.2q-4,-5.6 -11.2,-8.9a36.562,36.562 0 0 0 -12.161,-3.136a44.278,44.278 0 0 0 -3.839,-0.164a40.13,40.13 0 0 0 -6.398,0.477q-6.592,1.066 -10.602,4.523a16.998,16.998 0 0 0 -4.115,5.12a15.739,15.739 0 0 0 -1.685,7.28a20.242,20.242 0 0 0 0.482,4.552q0.778,3.373 2.811,5.78a12.642,12.642 0 0 0 0.607,0.668a23.661,23.661 0 0 0 5.773,4.297a30.896,30.896 0 0 0 4.327,1.903a184.239,184.239 0 0 0 9.694,3.132a208.993,208.993 0 0 0 3.406,0.968q6.9,1.9 13.1,4.8a27.417,27.417 0 0 1 7.866,5.446a25.692,25.692 0 0 1 2.234,2.554q3.188,4.169 3.77,10.943a36.897,36.897 0 0 1 0.13,3.157a24.577,24.577 0 0 1 -1.457,8.635a21.466,21.466 0 0 1 -7.043,9.465a29.556,29.556 0 0 1 -10.82,5.277q-5.335,1.423 -11.88,1.423a46.325,46.325 0 0 1 -10.594,-1.181a41.621,41.621 0 0 1 -3.306,-0.919a43.371,43.371 0 0 1 -9.874,-4.575a39.859,39.859 0 0 1 -1.826,-1.225q-5.2,-3.7 -9.2,-8.5z"
                id="5" vector-effect="non-scaling-stroke" />
            <path
                d="m596.47233,141.70734a48.116,48.116 0 0 0 16.061,2.626a53.973,53.973 0 0 0 0.823,-0.006a45.492,45.492 0 0 0 23.077,-6.394q10.7,-6.4 17,-17.3a45.49,45.49 0 0 0 4.108,-9.429a51.712,51.712 0 0 0 2.192,-15.271q0,-13.4 -6.3,-24.2q-6.3,-10.8 -17,-17.1q-10.7,-6.3 -23.9,-6.3a55.326,55.326 0 0 0 -2.694,0.065a45.934,45.934 0 0 0 -21.406,6.235q-10.7,6.3 -17,17.1a45.257,45.257 0 0 0 -3.522,7.55a48.991,48.991 0 0 0 -2.778,16.65a57.2,57.2 0 0 0 0.055,2.528a48.007,48.007 0 0 0 6.245,22.072q6.3,11 17,17.4a44.104,44.104 0 0 0 8.039,3.774zm16.061,-3.174q11.6,0 20.8,-5.6q9.2,-5.6 14.6,-15.3a43.051,43.051 0 0 0 5.24,-17.78a52.399,52.399 0 0 0 0.16,-4.12q0,-11.8 -5.4,-21.2q-5.4,-9.4 -14.6,-14.9a39.037,39.037 0 0 0 -17.937,-5.414a47.13,47.13 0 0 0 -2.863,-0.086a42.01,42.01 0 0 0 -14.077,2.313a38.612,38.612 0 0 0 -6.823,3.187q-9.3,5.5 -14.7,14.9q-5.4,9.4 -5.4,21.4a47.207,47.207 0 0 0 1.709,12.903a40.65,40.65 0 0 0 3.691,8.897q5.4,9.6 14.7,15.2a39.391,39.391 0 0 0 19.437,5.578a47.175,47.175 0 0 0 1.463,0.022z"
                id="6" fill-rule="evenodd" vector-effect="non-scaling-stroke" />
            <path
                d="m702.53333,142.33334l-6.2,0l0,-111.2q0,-8.8 3.7,-15.5q3.7,-6.7 10.3,-10.5a28.615,28.615 0 0 1 11.913,-3.666a35.056,35.056 0 0 1 3.087,-0.134a31.125,31.125 0 0 1 8.238,1.063a27.74,27.74 0 0 1 3.562,1.237q5.4,2.3 9.4,6.5l-4.2,4.2q-3.8,-4 -8.1,-5.7q-4.3,-1.7 -9.1,-1.7a26.601,26.601 0 0 0 -7.025,0.879a19.246,19.246 0 0 0 -9.575,5.921a23.114,23.114 0 0 0 -5.084,9.996q-0.916,3.751 -0.916,8.204l0,110.4zm34,-86.6l-64.6,0l0,-5.4l64.6,0l0,5.4z"
                id="7" vector-effect="non-scaling-stroke" />
            <path d="m774.13333,142.33334l-6.2,0l0,-131.2l6.2,0l0,131.2zm24.2,-86.6l-54.8,0l0,-5.4l54.8,0l0,5.4z"
                id="8" vector-effect="non-scaling-stroke" />
        </g>
    </g>
</svg>